<?xml version="1.0" encoding="utf-8"?>
<!-- Generator: Adobe Illustrator 26.2.1, SVG Export Plug-In . SVG Version: 6.00 Build 0)  -->
<svg version="1.1" id="Layer_1" xmlns="http://www.w3.org/2000/svg" xmlns:xlink="http://www.w3.org/1999/xlink" x="0px" y="0px"
	 viewBox="0 0 200 110" style="enable-background:new 0 0 200 110;" xml:space="preserve">
<style type="text/css">
	.st0{fill:#008ccc;}
	.st1{fill:#7A848D;}
	.st2{fill:#FFFFFF;}
</style>
<g>
	<polygon class="st0" points="35.3,41.7 37.5,39.4 72.8,0 0,0 0,89 78.1,89 37.5,44.5 	"/>
	<polygon class="st1" points="85.6,0 47.8,42.1 90.7,89 200,89 200,0 	"/>
	<g>
		<path class="st2" d="M24.3,15.9h10.2v56.3H24.3V15.9z"/>
		<path class="st2" d="M83.2,19c1.6,0,3,0.6,4.1,1.8c1.2,1.2,1.7,2.6,1.7,4.2c0,1.6-0.6,3-1.7,4.2c-1.1,1.2-2.5,1.7-4.1,1.7
			c-1.6,0-3-0.6-4.2-1.8c-1.2-1.2-1.7-2.6-1.7-4.3c0-1.6,0.6-3,1.7-4.1C80.2,19.5,81.6,19,83.2,19z M78.6,35.6h9.2v36.6h-9.2V35.6z"
			/>
		<path class="st2" d="M97.3,15.9h9.2v19.7h5.5v7.9h-5.5v28.7h-9.2V43.5h-4.7v-7.9h4.7V15.9z"/>
		<path class="st2" d="M116.4,15.9h9.2v19.7h5.5v7.9h-5.5v28.7h-9.2V43.5h-4.7v-7.9h4.7V15.9z"/>
		<path class="st2" d="M154.8,34.7c3.5,0,6.7,0.9,9.8,2.6c3,1.7,5.4,4.1,7.1,7c1.7,3,2.6,6.2,2.6,9.6c0,3.5-0.9,6.7-2.6,9.7
			c-1.7,3-4.1,5.4-7,7.1c-3,1.7-6.2,2.5-9.8,2.5c-5.3,0-9.7-1.9-13.5-5.6c-3.7-3.7-5.6-8.3-5.6-13.6c0-5.7,2.1-10.5,6.3-14.3
			C145.8,36.3,150,34.7,154.8,34.7z M154.9,43.3c-2.9,0-5.2,1-7.1,3c-1.9,2-2.9,4.5-2.9,7.6c0,3.2,0.9,5.8,2.8,7.7
			c1.9,2,4.3,3,7.1,3c2.9,0,5.3-1,7.2-3c1.9-2,2.9-4.6,2.9-7.7c0-3.1-0.9-5.7-2.8-7.7C160.2,44.3,157.8,43.3,154.9,43.3z"/>
		<polygon class="st2" points="47.8,42.1 85.6,0 72.8,0 37.5,39.4 35.3,41.7 37.5,44.5 78.1,89 90.7,89 		"/>
	</g>
</g>
<g>
	<path class="st1" d="M27.8,109.3c-0.8-0.4-1.4-1.1-1.8-1.9c-0.4-0.8-0.6-1.8-0.6-2.9c0-1.1,0.2-2,0.7-2.8c0.5-0.8,1.1-1.5,1.9-1.9
		c0.8-0.4,1.8-0.7,2.8-0.7c0.5,0,1.1,0.1,1.6,0.2c0.5,0.1,0.9,0.3,1.3,0.4l-0.2,1.8c-0.9-0.4-1.8-0.6-2.7-0.6c-1.1,0-2,0.3-2.5,1
		c-0.6,0.7-0.8,1.5-0.8,2.6c0,1.1,0.3,2,0.8,2.6c0.6,0.7,1.4,1,2.4,1c0.4,0,0.9-0.1,1.4-0.2v-1.9h-1.4v-1.6H34v4.6
		c-0.4,0.2-0.9,0.4-1.5,0.6c-0.6,0.1-1.2,0.2-1.9,0.2C29.5,110,28.6,109.8,27.8,109.3z"/>
	<path class="st1" d="M46.4,99.4h3.8c1.1,0,2,0.3,2.6,0.8c0.6,0.5,1,1.3,1,2.4c0,0.7-0.2,1.3-0.5,1.8c-0.3,0.5-0.7,0.8-1.3,1.1
		l2.4,4.4h-2.1l-2-3.9h-0.1h-1.9v3.9h-1.9V99.4z M49.7,104.3c1.4,0,2.1-0.6,2.1-1.7c0-0.5-0.2-1-0.5-1.2c-0.3-0.3-0.8-0.4-1.5-0.4
		h-1.5v3.4H49.7z"/>
	<path class="st1" d="M67.3,109.3c-0.8-0.5-1.4-1.1-1.8-1.9c-0.4-0.8-0.7-1.8-0.7-2.8c0-1.1,0.2-2,0.7-2.8c0.4-0.8,1.1-1.5,1.8-1.9
		c0.8-0.5,1.7-0.7,2.6-0.7c1,0,1.9,0.2,2.6,0.7c0.8,0.5,1.4,1.1,1.8,1.9c0.4,0.8,0.7,1.8,0.7,2.8c0,1.1-0.2,2-0.7,2.8
		c-0.4,0.8-1.1,1.5-1.8,1.9c-0.8,0.5-1.7,0.7-2.6,0.7C69,110,68.1,109.8,67.3,109.3z M72.3,107.2c0.5-0.7,0.8-1.5,0.8-2.6
		c0-1.1-0.3-1.9-0.8-2.6c-0.5-0.7-1.3-1-2.3-1c-1,0-1.8,0.3-2.3,1c-0.5,0.7-0.8,1.5-0.8,2.6c0,1.1,0.3,1.9,0.8,2.6
		c0.5,0.7,1.3,1,2.3,1C71,108.2,71.8,107.8,72.3,107.2z"/>
	<path class="st1" d="M87.5,108.8c-0.7-0.8-1.1-2-1.1-3.4v-6h1.9v5.5c0,0.7,0.1,1.3,0.2,1.8c0.1,0.5,0.4,0.9,0.7,1.1
		c0.4,0.3,0.9,0.4,1.5,0.4s1.1-0.1,1.5-0.4c0.4-0.3,0.6-0.6,0.7-1.1s0.2-1.1,0.2-1.8v-5.5H95v6c0,1.5-0.4,2.6-1.1,3.4
		c-0.7,0.8-1.8,1.2-3.2,1.2C89.3,110,88.2,109.6,87.5,108.8z"/>
	<path class="st1" d="M105.4,99.4h3.7c2.5,0,3.7,1.1,3.7,3.4c0,1.2-0.3,2-0.9,2.6c-0.6,0.6-1.5,0.8-2.7,0.8h-1.8v3.6h-1.9V99.4z
		 M108.9,104.6c0.7,0,1.1-0.1,1.5-0.4s0.5-0.8,0.5-1.4s-0.2-1.1-0.5-1.4c-0.3-0.3-0.8-0.4-1.5-0.4h-1.6v3.6H108.9z"/>
	<path class="st1" d="M131.6,99.4h3.7c2.5,0,3.7,1.1,3.7,3.4c0,1.2-0.3,2-0.9,2.6c-0.6,0.6-1.5,0.8-2.7,0.8h-1.8v3.6h-1.9V99.4z
		 M135.1,104.6c0.7,0,1.1-0.1,1.5-0.4c0.3-0.3,0.5-0.8,0.5-1.4s-0.2-1.1-0.5-1.4c-0.3-0.3-0.8-0.4-1.5-0.4h-1.6v3.6H135.1z"/>
	<path class="st1" d="M149.4,99.4h1.9v8.7h4.3v1.7h-6.2V99.4z"/>
	<path class="st1" d="M169.1,109.3c-0.8-0.4-1.4-1.1-1.9-1.9c-0.4-0.8-0.7-1.8-0.7-2.9c0-1.1,0.2-2,0.7-2.8c0.5-0.8,1.1-1.5,1.9-1.9
		c0.8-0.5,1.8-0.7,2.8-0.7c1,0,1.9,0.2,2.7,0.6l-0.2,1.8c-0.4-0.2-0.8-0.3-1.2-0.4c-0.4-0.1-0.8-0.2-1.3-0.2c-1.1,0-1.9,0.3-2.5,1
		c-0.6,0.7-0.9,1.5-0.9,2.6c0,1.1,0.3,2,0.8,2.6c0.6,0.7,1.4,1,2.4,1c0.5,0,0.9,0,1.3-0.1c0.4-0.1,0.8-0.2,1.3-0.4l0.2,1.8
		c-0.9,0.4-1.8,0.6-2.8,0.6C170.8,110,169.9,109.8,169.1,109.3z"/>
</g>
</svg>
